# xmcd CD database file
#
# Track frame offsets:
#	150
#	21590
#	37901
#	59769
#	80792
#	96780
#	115938
#	131923
#	151559
#	168947
#	187300
#	207503
#	227796
#	245006
#	265289
#	284895
#	299293
#
# Disc length: 4250 seconds
#
# Revision: 5
# Processed by: cddbd v1.5.1PL0 Copyright (c) Steve Scherf et al.
# Submitted via: cdripper 1,0,15,908
#
DISCID=0d109811
DTITLE=MARIAH CAREY - Best Ballads
DYEAR=1992
DGENRE=Pop
TTITLE0=One Sweet Day (feat. Boyz 2 Men)
TTITLE1=Without You
TTITLE2=I Don't Wanna Cry
TTITLE3=If It's Over
TTITLE4=Vision Of Love
TTITLE5=So Blessed
TTITLE6=Open Arms
TTITLE7=Endless Love (feat. L.Vandross)
TTITLE8=Love Takes Time
TTITLE9=Forever
TTITLE10=Anytime You Need A Friend
TTITLE11=Can't Let Go
TTITLE12=Never Forget You
TTITLE13=And You Don't Remember
TTITLE14=Hero
TTITLE15=I Am Free
TTITLE16=I'll Be There (feat. Trey Lorenz)
EXTD=1992 - Sony Music YEAR: 1992
EXTT0=
EXTT1=
EXTT2=
EXTT3=
EXTT4=
EXTT5=
EXTT6=
EXTT7=
EXTT8=
EXTT9=
EXTT10=
EXTT11=
EXTT12=
EXTT13=
EXTT14=
EXTT15=
EXTT16=
PLAYORDER=
